# xmcd
#
# Track frame offsets:
#	150
#	13932
#	32116
#	46980
#	63678
#	77083
#	90250
#	110954
#	127085
#	148172
#	162333
#
# Disc length: 2426 seconds
#
# Revision: 1
# Processed by: cddbd v1.5.2PL0 Copyright (c) Steve Scherf et al.
# Submitted via: audiograbber 1.83.01
#
DISCID=9d09780b
DTITLE=Eric Dodge - Home To Me
DYEAR=2010
DGENRE=Country
TTITLE0=Talking Dirty
TTITLE1=Home To Me
TTITLE2=Drivin It Home
TTITLE3=Better Days To Come
TTITLE4=Ain't Gone Enough
TTITLE5=Cowboy Up Party Down
TTITLE6=Home Of The Brave
TTITLE7=That Kind Of Country Song
TTITLE8=Never Make Love Wait
TTITLE9=In The Country
TTITLE10=Last Real Cowboy
EXTD=http://ericdodge.com/
EXTT0=
EXTT1=
EXTT2=
EXTT3=
EXTT4=
EXTT5=
EXTT6=
EXTT7=
EXTT8=
EXTT9=
EXTT10=
PLAYORDER=
